<svg id="Capa_1" enable-background="new 0 0 512 512" height="512" viewBox="0 0 512 512" width="512" xmlns="http://www.w3.org/2000/svg"><g><path d="m143.431 281.438h319.821v45.891h-319.821z"/><path d="m512 357.329h-417.317v30h30.347c-2.408 4.62-3.966 9.742-4.448 15.159-2.281 25.609 19.084 46.972 44.692 44.689 19.631-1.75 35.439-17.558 37.188-37.189.731-8.203-.974-15.965-4.457-22.659h210.665c-2.408 4.62-3.966 9.742-4.448 15.159-2.281 25.609 19.084 46.972 44.692 44.689 19.631-1.75 35.439-17.558 37.188-37.189.731-8.203-.974-15.965-4.457-22.659h30.355z"/><path d="m27.928 151.568h79.084v30h-79.084z"/><path d="m27.928 271.568h79.084v30h-79.084z"/><path d="m0 211.568h107.012v30h-107.012z"/><path d="m431.66 249.952c0-63.93-46.754-116.933-107.933-126.7 7.589-6.017 12.463-15.31 12.463-25.747 0-18.142-14.707-32.849-32.849-32.849s-32.849 14.707-32.849 32.849c0 10.437 4.874 19.73 12.463 25.747-61.179 9.767-107.933 62.77-107.933 126.7v1.485h256.638z"/></g></svg>