<?xml version="1.0" encoding="utf-8"?>
<!-- Generator: Adobe Illustrator 21.0.0, SVG Export Plug-In . SVG Version: 6.00 Build 0)  -->
<svg version="1.1" id="Capa_1" xmlns="http://www.w3.org/2000/svg" xmlns:xlink="http://www.w3.org/1999/xlink" x="0px" y="0px"
	 viewBox="0 0 512 548" style="enable-background:new 0 0 512 548;" xml:space="preserve">
<g>
	<g>
		<path d="M143.4,216.8h319.8v45.9H143.4V216.8z"/>
		<path d="M94.7,292.7h121.4c-30.5,20.9-53.2,52.4-62.6,89.2c-20-4-34.9-22.5-32.9-44.1c0.5-5.4,2-10.5,4.5-15.2H94.7V292.7z"/>
		<path d="M512,322.7h-30.4c3.5,6.7,5.2,14.5,4.5,22.7c-1.6,18.2-15.3,33.1-32.9,36.6c-9.4-36.8-32.1-68.3-62.6-89.2H512V322.7z"/>
		<path d="M27.9,86.9H107v30H27.9L27.9,86.9z"/>
		<path d="M27.9,206.9H107v30H27.9L27.9,206.9z"/>
		<path d="M0,146.9h107v30H0V146.9z"/>
		<path d="M431.7,185.3c0-63.9-46.8-116.9-107.9-126.7c7.6-6,12.5-15.3,12.5-25.7c0-18.1-14.7-32.8-32.8-32.8s-32.8,14.7-32.8,32.8
			c0,10.4,4.9,19.7,12.5,25.7C221.8,68.4,175,121.4,175,185.3v1.5h256.6L431.7,185.3z"/>
	</g>
	<g>
		<path d="M423.2,376.3c-4.6-12.5-11.1-24-19.1-34.4c-5.5-7-11.7-13.5-18.6-19.3c-22.2-18.7-50.9-30-82.1-30
			c-31.3,0-59.9,11.3-82.2,30c-6.8,5.8-13.1,12.2-18.6,19.3c-8,10.3-14.5,21.9-19.1,34.4c-5.1,13.7-7.8,28.6-7.8,44
			c0,70.4,57.3,127.7,127.7,127.7S431,490.7,431,420.3C431,404.9,428.2,390,423.2,376.3z M350.3,452.3c4.2,4.2,4.2,10.9,0,15
			c-2.1,2.1-4.8,3.1-7.5,3.1c-2.7,0-5.4-1-7.5-3.1l-32-32l-32,32c-2.1,2.1-4.8,3.1-7.5,3.1c-2.7,0-5.4-1-7.5-3.1
			c-4.2-4.2-4.2-10.9,0-15l32-32l-32-32c-4.2-4.2-4.2-10.9,0-15c2.1-2.1,4.8-3.1,7.5-3.1c2.7,0,5.4,1,7.5,3.1l32,32l32-32
			c2.1-2.1,4.8-3.1,7.5-3.1c2.7,0,5.5,1,7.5,3.1c4.2,4.2,4.2,10.9,0,15l-32,32L350.3,452.3z"/>
	</g>
</g>
</svg>
